<?xml version="1.0" standalone="no"?>
<!DOCTYPE svg PUBLIC "-//W3C//DTD SVG 20010904//EN"
 "http://www.w3.org/TR/2001/REC-SVG-20010904/DTD/svg10.dtd">
<svg version="1.0" xmlns="http://www.w3.org/2000/svg"
 width="1280.000000pt" height="1227.000000pt" viewBox="0 0 1280.000000 1227.000000"
 preserveAspectRatio="xMidYMid meet">
<metadata>
Created by potrace 1.15, written by Peter Selinger 2001-2017
</metadata>
<g transform="translate(0.000000,1227.000000) scale(0.100000,-0.100000)"
fill="#03a9f4" stroke="none">
<path d="M9350 12260 c-52 -4 -135 -15 -185 -24 -639 -118 -1238 -593 -1570
-1247 l-65 -128 -43 18 c-85 37 -293 99 -369 111 -98 16 -330 8 -458 -15 -373
-67 -734 -258 -1002 -531 -53 -55 -117 -124 -141 -155 -117 -145 -240 -371
-293 -540 -33 -101 -23 -97 -149 -74 -239 43 -575 -14 -828 -141 -145 -73
-224 -130 -342 -249 -209 -211 -325 -459 -356 -768 -71 -704 400 -1346 1114
-1515 101 -24 132 -26 307 -27 187 0 200 1 320 32 126 32 291 87 349 117 l31
17 98 -79 c270 -220 579 -369 892 -431 525 -104 1034 -14 1525 268 48 28 92
51 97 51 5 0 35 -22 66 -49 380 -328 1007 -449 1495 -290 331 108 649 341 861
632 28 37 53 67 57 67 4 0 61 -24 126 -54 242 -109 378 -142 545 -133 521 30
954 329 1189 822 277 579 228 1310 -123 1835 -77 116 -233 280 -348 366 -154
116 -371 213 -548 244 -60 11 -73 17 -77 34 -2 12 -11 57 -20 101 -145 710
-618 1307 -1250 1581 -290 126 -608 180 -905 154z"/>
<path d="M3905 10661 c-423 -147 -662 -247 -940 -398 -1207 -653 -2103 -1690
-2589 -2995 -314 -844 -444 -1865 -340 -2678 137 -1078 711 -2175 1585 -3025
685 -666 1470 -1132 2330 -1384 597 -174 1202 -220 1919 -145 1077 111 2060
488 2875 1100 293 220 664 570 881 829 446 535 739 1052 1009 1775 48 129 91
246 96 259 9 23 9 23 -13 9 -154 -100 -509 -320 -603 -373 -157 -90 -467 -239
-630 -305 -478 -193 -950 -311 -1465 -367 -230 -24 -779 -25 -1000 0 -433 48
-824 139 -1191 277 -171 64 -409 168 -409 179 0 4 14 20 31 37 17 16 72 81
122 144 101 128 187 292 207 395 22 106 0 238 -59 353 -36 71 -136 168 -209
204 -62 31 -73 33 -172 33 -93 0 -112 -3 -162 -27 -104 -49 -181 -128 -214
-220 -19 -54 -48 -86 -99 -109 -56 -25 -248 -42 -420 -37 l-145 3 -50 50 c-78
76 -252 271 -336 376 -440 554 -745 1230 -878 1950 -53 287 -69 478 -70 824 0
322 5 409 45 693 100 721 380 1457 793 2087 51 77 163 238 249 358 86 120 157
220 157 222 0 10 -32 0 -305 -94z"/>
</g>
</svg>
